<svg xmlns="http://www.w3.org/2000/svg" viewBox="0 0 100 100">
<style>
path {
        fill: #0bd;
    }
    @media (prefers-color-scheme: dark) {
        path {
            fill: #faa;
        }</style>
<path d="M47.6,88.4c-2.9.9-6.4-1.2-8.8-2.7A13.3,13.3,0,0,1,33,78.9a24.6,24.6,0,0,1,.5-18.3,19.2,19.2,0,0,1,11.8-11,25.4,25.4,0,0,1,9.9-.6,24.8,24.8,0,0,1,8.5,2.2,16.8,16.8,0,0,1,6.6,6.1c1.8,2.6,3.7,5.4,4.3,8.5,1,5.4-1.5,11.5-4.8,15.7S61.2,89,55.6,89.4s-12.2-2.7-14-8.7.3-14.4,6.1-17.8a10.3,10.3,0,0,1,8.7-1.2c2.9,1.1,5.6,4.3,4.1,7.6-.8,1.7,1.8,3.2,2.6,1.5a8.4,8.4,0,0,0-1.8-9.5,11.9,11.9,0,0,0-9.2-3c-7.1.8-12.3,6.6-13.7,13.4s.7,14.7,7.2,18.4S60,92.8,66,88.9A26.2,26.2,0,0,0,77,73.7a18.8,18.8,0,0,0-.2-11,36.5,36.5,0,0,0-5.9-9.6c-4.8-5.6-12.5-7.3-19.5-7.3a21.9,21.9,0,0,0-18.1,9.1C29,60.8,27.7,68.8,29,76a18.9,18.9,0,0,0,4.5,9.3A23.7,23.7,0,0,0,43,91a8.4,8.4,0,0,0,5.4.3c1.9-.6,1.1-3.5-.8-2.9Z"/><path d="M37.4,52.2c-5.1-5.3-8.7-13-8.5-20.5.2-3.4,2-7.5,5.9-7.7s7.1,3.2,9.5,6A45.8,45.8,0,0,0,61.9,42.8a43.5,43.5,0,0,0,10.6,2.7c3.6.4,7,0,10.5,0,1.6.1,3.6.3,4.5,1.9s-.1,3.6-1.3,4.7c-3.2,3.1-8.6,2.5-12.6,3.7-1.9.6-1.1,3.5.8,2.9,4.3-1.3,9.2-.9,12.9-3.6s4.7-6.6,2.4-9.8-6.9-2.7-10.5-2.6a39.4,39.4,0,0,1-12.3-1.4,41.7,41.7,0,0,1-11.2-5,45.2,45.2,0,0,1-9.4-8.6c-2.8-3.2-6.2-6.3-10.7-6.7s-7.7,2.8-9,6.7-.4,10,1.1,14.4a33,33,0,0,0,7.6,12.2c1.3,1.4,3.5-.7,2.1-2.1Z"/><path d="M29,26.6c-2-.8-2.6-2.9-2.9-4.8s-.5-5-.7-7.5a1.6,1.6,0,0,0-1.5-1.5,1.5,1.5,0,0,0-1.5,1.5,65.6,65.6,0,0,0,.9,8.8c.4,2.4,1.7,5,4.1,6.1a1.6,1.6,0,0,0,2.1-.6,1.5,1.5,0,0,0-.5-2Z"/><path d="M38.5,22A9.4,9.4,0,0,1,38,11.6,1.5,1.5,0,0,0,35.4,10a12.4,12.4,0,0,0,1,14.1,1.5,1.5,0,0,0,2.1,0,1.4,1.4,0,0,0,0-2.1Z"/><path d="M23.7,12.6l-1-.2h-.3c.1,0,.3.2.1,0h-.3V12c-.2-.2.1.2,0,0l-.3-.4-.5-1v-.2c0-.1-.1-.3,0-.1a.8.8,0,0,1-.2-.5.3.3,0,0,0-.1-.2h0V9.1h0V8.9c.1-.3,0-.1,0,0s.1-.1.1-.2h0l.2-.2h.2l.4-.3h.3c-.2,0,.1-.1.1-.1h1.6c.2,0-.2-.2,0,0h.3l.2.2h0l.3.3.2.2h0l.3.4c0,.1,0,.2.1.2s.1.3,0,.1,0,.1.1.1v.7h0v.6h0c0,.2-.1.3-.1.5s0-.1,0-.1v.3h-.1c-.2.3-.1,0,0,0s-.3.4-.4.4-.1.2.1,0h-.5c-.1,0-.1,0,.1-.1l-.5.2a1.5,1.5,0,0,0-1.1,1.8,1.6,1.6,0,0,0,1.9,1.1,4.7,4.7,0,0,0,3.6-3.8,5.9,5.9,0,0,0-2-5.5,5.6,5.6,0,0,0-3-1.2,6.1,6.1,0,0,0-3,.8,4.3,4.3,0,0,0-2.2,2.4,4.4,4.4,0,0,0,.1,3A11.4,11.4,0,0,0,19.8,14a5.1,5.1,0,0,0,3.1,1.5,1.5,1.5,0,0,0,1.8-1.1,1.4,1.4,0,0,0-1-1.8Z"/><path d="M36.9,9.3c.4-.1.2,0,.1,0h-.1a.1.1,0,0,1-.1-.1h-.1L36.5,9h0V8.8h-.1a4.3,4.3,0,0,1-.1-.5h0V7.5h0V7.2a2.9,2.9,0,0,1,.2-.9c.2-.4-.1.2.1-.1s.2-.3.2-.4h.1c.2-.2,0,0-.1,0h1.6c.3,0-.3-.1-.1-.1h.6c.3.1-.1,0-.1,0h.4s.2.3.3.3h0v.2h0l.2.5a2.9,2.9,0,0,1,.2.9c0,.1.1.3,0,.1h0a1.3,1.3,0,0,1,.1.6v.4c-.1.2.1-.3,0,0h-.1c.1-.1.1-.2,0-.1h-.1c-.1.2.1,0,.1,0H38.4c-.8.1-1.6.7-1.5,1.5a1.4,1.4,0,0,0,1.5,1.5,5.3,5.3,0,0,0,2.7-.6,3.3,3.3,0,0,0,1.8-2.3,5.7,5.7,0,0,0-.1-2.9,5.3,5.3,0,0,0-1.3-2.6,5.4,5.4,0,0,0-5.3-1.1c-2.1.8-2.9,3-3,5.1a5,5,0,0,0,1.2,3.3,3.7,3.7,0,0,0,3.3,1.1,1.5,1.5,0,0,0,1-1.9,1.4,1.4,0,0,0-1.8-1Z"/><path d="M21,8.6v0a.8.8,0,0,1,0,.7V8.9h0a1.3,1.3,0,0,0-.1.6,1.4,1.4,0,0,0,.2.6.8.8,0,0,0,.4.4l.5.3h.4a1.2,1.2,0,0,0,.8-.2l.3-.2a1.6,1.6,0,0,0,.4-.7c0-.3.1-.7.1-1a1.7,1.7,0,0,1-.1-.7.4.4,0,0,1-.1-.3l-.3-.5-.4-.4-.6-.2H22l-.3.2c-.3.1-.4.3-.6.5v.4a1.1,1.1,0,0,0,0,.8Z"/><path d="M36.1,5c-.1.2-.1.5-.2.7s.1.5.1.7a.8.8,0,0,0,.2.5c0,.2,0,.3.1.4l.3.4c.2.1.3.3.5.3a.7.7,0,0,0,.6.1.7.7,0,0,0,.6-.1c.2,0,.3-.2.5-.3l.2-.3a1.9,1.9,0,0,0,.2-.8V6.2c0-.2-.2-.4-.3-.6h-.1l.3.3-.2-.3L39,6c-.1-.1-.1-.2-.1-.4v.5a.4.4,0,0,1,.1-.3V5.2a1.4,1.4,0,0,0-.2-.6c-.1-.1-.2-.3-.4-.4L37.9,4h-.4l-.7.2-.3.2a1.3,1.3,0,0,0-.4.7Z"/><path d="M32.4,31.4a1.5,1.5,0,0,0,0-3,1.5,1.5,0,0,0,0,3Z"/><path d="M35.1,28.5H35l-.3.5a1.3,1.3,0,0,0-.1.6.7.7,0,0,0,.1.5l.3.5.3.3.8.2h.4c.2-.1.5-.2.6-.4h.2l.3-.5a1.3,1.3,0,0,0,.1-.6.7.7,0,0,0-.1-.5l-.3-.5-.3-.3-.8-.2h-.4l-.7.4Z"/><path d="M32.2,36.2a3.8,3.8,0,0,0,3.4.6,5.4,5.4,0,0,0,2.6-1.1,1.5,1.5,0,0,0,.6-.9,1.4,1.4,0,0,0-.1-1.1,1.3,1.3,0,0,0-.9-.7,1.7,1.7,0,0,0-1.2.1,4.1,4.1,0,0,1-1.1.7l.3-.2-1.3.4h-.4l.3.2-.3-.2.3.2h-.1a1.5,1.5,0,0,0-2.1,0,1.7,1.7,0,0,0,0,2.2Z"/><path d="M50,66.9a1.5,1.5,0,0,0,0-3,1.5,1.5,0,0,0,0,3Z"/><path d="M55.1,64.6h-.8c-.2,0-.3.2-.5.3l-.3.5a1.3,1.3,0,0,0-.1.6v.4a2.1,2.1,0,0,0,.4.6l.3.3.8.2h.2l.5-.2a1.2,1.2,0,0,0,.8-.8.8.8,0,0,0,.2-.5v-.4a1.6,1.6,0,0,0-.4-.7l-.3-.2a1,1,0,0,0-.7-.2Z"/><path d="M49.5,72.2H51a9.8,9.8,0,0,1,2.3.6h-.4l.5.2a1.7,1.7,0,0,0,2.1-.5,1.6,1.6,0,0,0-.6-2.1,10.9,10.9,0,0,0-5.4-1.1,1.9,1.9,0,0,0-1,.5,1.2,1.2,0,0,0-.5,1c.1.8.7,1.6,1.5,1.5Z"/></svg>