<svg xmlns="http://www.w3.org/2000/svg" xmlns:xlink="http://www.w3.org/1999/xlink" viewBox="0 0 695 212.7"><defs><style>.a{fill:none;stroke-linejoin:round;stroke:url(#a);}.b{fill:url(#f);}</style><linearGradient id="a" x1="347.52" y1="212.18" x2="347.52" y2="0.5" gradientUnits="userSpaceOnUse"><stop offset="0" stop-color="#fff" stop-opacity="0.5"/><stop offset="0.07" stop-color="#fff" stop-opacity="0.54"/><stop offset="0.71" stop-color="#fff" stop-opacity="0.87"/><stop offset="1" stop-color="#fff"/></linearGradient><linearGradient id="f" x1="347.52" y1="212.18" x2="347.52" y2="0.5" gradientUnits="userSpaceOnUse"><stop offset="0" stop-color="#fff" stop-opacity="0"/><stop offset="0.5" stop-color="#fff" stop-opacity="0.53"/><stop offset="0.85" stop-color="#fff" stop-opacity="0.87"/><stop offset="1" stop-color="#fff"/></linearGradient></defs><path class="a" d="M153.8,52.1c0,2.8-1,4.1-3,4.1s-3.4-2.5-4.1-7.5c-2.4-14.4-7.3-24.9-14.6-31.5q-7-6.3-21.9-7.8-5.4-.6-23.7-.6c-9.1,0-20,.3-32.6.9V96.9c25.3.2,40.9-1.5,46.8-4.9s9.5-13.2,10.7-29.2c.4-4.6,1.6-6.9,3.5-6.9s3,1.5,3,4.5a26.8,26.8,0,0,1-.3,4.4c-.6,13.7-.9,26.3-.9,38,0,15,.3,26.9,1,35.6a27.4,27.4,0,0,1,.2,3.5c0,2.4-1,3.6-2.9,3.6s-2.6-.6-3-1.8-1.1-5.7-2.1-13.6c-1.5-12.1-4.6-19.6-9.3-22.6s-13.8-4.4-27.6-4.4c-7.2,0-13.6.2-19.1.6V192c0,5.8,2.2,9.4,6.7,11,2.2.8,6.9,1.1,14.4.9,3.1,0,4.7.8,4.7,2.3s-2,2.7-6,2.7H6.1c-3.7,0-5.6-.8-5.6-2.4s3.4-2.5,10.2-2.9,10.8-1.4,12-2.9,1.8-6.1,1.8-13.8V16.2c-.2-3.5-1.2-5.8-3.1-6.7S14.3,8.1,5.9,7.9c-3.2,0-4.8-1-4.8-2.9S2.9,2.3,6.4,2.3H87.7q50.1,0,61.3-1.8.3,3.9,1.8,22.2c.6,8.3,1.4,15.7,2.4,22.3A49.6,49.6,0,0,1,153.8,52.1Z"/><path class="a" d="M266.1,195.3c0,3.3-3.5,6.9-10.4,10.5s-13.8,5.5-20.2,5.5c-13.6,0-20.7-7-21.3-21.1-7.4,14.7-19,22-34.8,22-8.4,0-15.4-2.5-20.9-7.6s-8.3-11.5-8.3-19.4c0-16.2,9.7-29.1,29.1-38.5,6.7-3.2,18.2-6.4,34.7-9.5v-7.4c0-17.4-.9-28.9-2.7-34.4-3.2-10.1-10.3-15.2-21.4-15.2-6.9,0-12.7,1.9-17.3,5.7a17.6,17.6,0,0,0-7,14.2c0,1.6,1.2,2.4,3.7,2.4s4.5,1.2,6.5,3.5a12.7,12.7,0,0,1,2.9,8c0,8.7-4.3,13.1-12.9,13.1a14.9,14.9,0,0,1-11.2-4.6,16.5,16.5,0,0,1-4.4-11.7c0-9.3,3.7-17.3,11-24s19.4-11,33.8-11c21.7,0,35.1,5.9,40,17.8q2.7,6.8,2.7,27V176c0,9.1.1,14.4.3,16,1,7.1,3.8,10.7,8.6,10.7a17.6,17.6,0,0,0,13.6-5.9q3-3.3,4.5-3.3C265.6,193.5,266.1,194.1,266.1,195.3ZM214,163.9V142.2c-14.7,3.4-25.1,7.8-31.5,13.2s-9.5,12.7-9.5,21.8c0,6.3,1.8,11.5,5.5,15.6a17.4,17.4,0,0,0,13.5,6c8.4,0,15.1-4.7,20.2-14.2Q214,181.3,214,163.9Z"/><path class="a" d="M346.5,191.1c0,1.8-2.5,5-7.4,9.5a43.7,43.7,0,0,1-30.3,11.6c-10.8,0-19-2.8-24.6-8.3-3.1-3.2-4.7-12.4-4.7-27.8V87.9a3.3,3.3,0,0,0-3.3-3.2H264.9c-4.3,0-6.5-.7-6.5-2.1s1.1-2.2,3.3-2.4c15.3-1.3,27.3-8.9,35.9-22.7a5.3,5.3,0,0,1,4.4-2.7c1.4,0,2.1.6,2.1,2v6.3c0,8.3.4,13.6,1.2,16a44.9,44.9,0,0,0,8.9.6q16.2,0,21.6-1.5l2.1-.3c1.6,0,2.4.8,2.4,2.5s-8.1,4.3-24.1,4.3H304.1v54.8c0,27.7.7,45.1,2.1,52.1s5.9,10.5,13.6,10.5,13.8-3.7,21.9-11a3.4,3.4,0,0,1,2.7-1.5Q346.5,189.6,346.5,191.1Z"/><path class="a" d="M488.8,198.5c0,1.4-2.2,2.2-6.5,2.4-15.5,1-29,4.4-40.7,10.1a4.1,4.1,0,0,1-2,.6q-1.8,0-1.8-2.4V192.6c-9,12.7-21.7,19-38,19-14.5,0-24.9-4.2-31.1-12.7a22.9,22.9,0,0,1-4.6-9.7c-.5-2.9-.7-10.9-.7-23.8V97.9c0-6.8-.4-10.9-1.2-12s-3.5-1.9-8-2.1h-3.9c-5.3.4-8-.4-8-2.4s1.7-2,5.1-2,8.7.2,15.4.8l5.9.3A145.6,145.6,0,0,0,388,79.4v82.3c0,15.1,1,25.2,2.9,30.1,3.2,7.7,9.6,11.5,19.3,11.5s18.2-4.3,23.1-13c3.6-6.3,5.4-16.3,5.4-30.1V114.5a93.6,93.6,0,0,0-.9-15.1V89.7c-.2-3-.9-4.7-1.9-5.2s-3.3-.7-6.7-.7c-8.3.2-12.5-.7-12.5-2.7s2.1-1.7,6.3-1.7h40.3v82.7q0,21.3.9,27c.6,3.7,2.1,5.9,4.5,6.5s8,.9,16.6.9C487.6,196.5,488.8,197.2,488.8,198.5Z"/><path class="a" d="M694.5,207c0,1.5-1.7,2.2-5,2.2H636.1c-2.5,0-3.8-.6-3.8-1.9s1.1-2.2,3.2-2.2h9.8c3-.2,4.7-.9,5.2-2.1s.7-5.4.7-12.5V116.8c0-11.5-1.5-19.7-4.5-24.5S638.5,85,631.2,85a24.6,24.6,0,0,0-14.3,4.6,24.3,24.3,0,0,0-9.2,11.7c-.8,3-1.2,13.9-1.2,32.9v56a105.5,105.5,0,0,0,.3,11.3c.6,2.4,2.3,3.6,5.2,3.6h8.5c2.5,0,3.8.7,3.8,2.2s-1.5,1.9-4.5,1.9H566.5q-3.6,0-3.6-2.4c0-.9.6-1.5,1.8-1.7s5.1-.3,11.8-.3q4.8-.3,5.1-3l.3-4.1V115.2c0-11.5-1.5-19.4-4.3-23.7S569.7,85,562.4,85a25.6,25.6,0,0,0-18.1,6.8,22.4,22.4,0,0,0-7.2,17.1v84c0,6,.4,9.5,1.3,10.5s3.8,1.7,8.6,1.7h2.4l3.2-.3c2.1,0,3.2.8,3.2,2.3s-1.3,2.1-3.9,2.1H549c-4.8-.2-12.2-.2-22.3,0h-29q-4.2,0-4.2-2.4c0-1.3,1.3-2,3.9-2,7.5,0,11.8-.4,13-1.1s1.9-1.9,2.1-3.7V123.2q0-22.2-.9-26.1c-.6-2.5-3.5-3.8-8.6-3.8h-9.8c-2.5,0-3.8-.7-3.8-2.1s.4-1.9,1.3-2.1l9.7-.8c4.5-.2,10.2-1.4,17-3.6s10.8-4.1,11.8-5.6,3.7-3.3,4.7-3.3,1.6.8,1.8,2.4.4,7.1.6,16.6c7.9-12.7,20.1-19,36.5-19s28.3,6.6,32.1,19.9C612.6,82.4,625,75.8,642,75.8c14.6,0,24.5,5.2,29.7,15.7,2.8,5.6,4.2,14.7,4.2,27.6v73.2c0,6.7.3,10.4,1,11.1s3.7,1.3,9.2,1.7h5.2C693.5,204.9,694.5,205.5,694.5,207Z"/><path class="b" d="M153.8,52.1c0,2.8-1,4.1-3,4.1s-3.4-2.5-4.1-7.5c-2.4-14.4-7.3-24.9-14.6-31.5q-7-6.3-21.9-7.8-5.4-.6-23.7-.6c-9.1,0-20,.3-32.6.9V96.9c25.3.2,40.9-1.5,46.8-4.9s9.5-13.2,10.7-29.2c.4-4.6,1.6-6.9,3.5-6.9s3,1.5,3,4.5a26.8,26.8,0,0,1-.3,4.4c-.6,13.7-.9,26.3-.9,38,0,15,.3,26.9,1,35.6a27.4,27.4,0,0,1,.2,3.5c0,2.4-1,3.6-2.9,3.6s-2.6-.6-3-1.8-1.1-5.7-2.1-13.6c-1.5-12.1-4.6-19.6-9.3-22.6s-13.8-4.4-27.6-4.4c-7.2,0-13.6.2-19.1.6V192c0,5.8,2.2,9.4,6.7,11,2.2.8,6.9,1.1,14.4.9,3.1,0,4.7.8,4.7,2.3s-2,2.7-6,2.7H6.1c-3.7,0-5.6-.8-5.6-2.4s3.4-2.5,10.2-2.9,10.8-1.4,12-2.9,1.8-6.1,1.8-13.8V16.2c-.2-3.5-1.2-5.8-3.1-6.7S14.3,8.1,5.9,7.9c-3.2,0-4.8-1-4.8-2.9S2.9,2.3,6.4,2.3H87.7q50.1,0,61.3-1.8.3,3.9,1.8,22.2c.6,8.3,1.4,15.7,2.4,22.3A49.6,49.6,0,0,1,153.8,52.1Z"/><path class="b" d="M266.1,195.3c0,3.3-3.5,6.9-10.4,10.5s-13.8,5.5-20.2,5.5c-13.6,0-20.7-7-21.3-21.1-7.4,14.7-19,22-34.8,22-8.4,0-15.4-2.5-20.9-7.6s-8.3-11.5-8.3-19.4c0-16.2,9.7-29.1,29.1-38.5,6.7-3.2,18.2-6.4,34.7-9.5v-7.4c0-17.4-.9-28.9-2.7-34.4-3.2-10.1-10.3-15.2-21.4-15.2-6.9,0-12.7,1.9-17.3,5.7a17.6,17.6,0,0,0-7,14.2c0,1.6,1.2,2.4,3.7,2.4s4.5,1.2,6.5,3.5a12.7,12.7,0,0,1,2.9,8c0,8.7-4.3,13.1-12.9,13.1a14.9,14.9,0,0,1-11.2-4.6,16.5,16.5,0,0,1-4.4-11.7c0-9.3,3.7-17.3,11-24s19.4-11,33.8-11c21.7,0,35.1,5.9,40,17.8q2.7,6.8,2.7,27V176c0,9.1.1,14.4.3,16,1,7.1,3.8,10.7,8.6,10.7a17.6,17.6,0,0,0,13.6-5.9q3-3.3,4.5-3.3C265.6,193.5,266.1,194.1,266.1,195.3ZM214,163.9V142.2c-14.7,3.4-25.1,7.8-31.5,13.2s-9.5,12.7-9.5,21.8c0,6.3,1.8,11.5,5.5,15.6a17.4,17.4,0,0,0,13.5,6c8.4,0,15.1-4.7,20.2-14.2Q214,181.3,214,163.9Z"/><path class="b" d="M346.5,191.1c0,1.8-2.5,5-7.4,9.5a43.7,43.7,0,0,1-30.3,11.6c-10.8,0-19-2.8-24.6-8.3-3.1-3.2-4.7-12.4-4.7-27.8V87.9a3.3,3.3,0,0,0-3.3-3.2H264.9c-4.3,0-6.5-.7-6.5-2.1s1.1-2.2,3.3-2.4c15.3-1.3,27.3-8.9,35.9-22.7a5.3,5.3,0,0,1,4.4-2.7c1.4,0,2.1.6,2.1,2v6.3c0,8.3.4,13.6,1.2,16a44.9,44.9,0,0,0,8.9.6q16.2,0,21.6-1.5l2.1-.3c1.6,0,2.4.8,2.4,2.5s-8.1,4.3-24.1,4.3H304.1v54.8c0,27.7.7,45.1,2.1,52.1s5.9,10.5,13.6,10.5,13.8-3.7,21.9-11a3.4,3.4,0,0,1,2.7-1.5Q346.5,189.6,346.5,191.1Z"/><path class="b" d="M488.8,198.5c0,1.4-2.2,2.2-6.5,2.4-15.5,1-29,4.4-40.7,10.1a4.1,4.1,0,0,1-2,.6q-1.8,0-1.8-2.4V192.6c-9,12.7-21.7,19-38,19-14.5,0-24.9-4.2-31.1-12.7a22.9,22.9,0,0,1-4.6-9.7c-.5-2.9-.7-10.9-.7-23.8V97.9c0-6.8-.4-10.9-1.2-12s-3.5-1.9-8-2.1h-3.9c-5.3.4-8-.4-8-2.4s1.7-2,5.1-2,8.7.2,15.4.8l5.9.3A145.6,145.6,0,0,0,388,79.4v82.3c0,15.1,1,25.2,2.9,30.1,3.2,7.7,9.6,11.5,19.3,11.5s18.2-4.3,23.1-13c3.6-6.3,5.4-16.3,5.4-30.1V114.5a93.6,93.6,0,0,0-.9-15.1V89.7c-.2-3-.9-4.7-1.9-5.2s-3.3-.7-6.7-.7c-8.3.2-12.5-.7-12.5-2.7s2.1-1.7,6.3-1.7h40.3v82.7q0,21.3.9,27c.6,3.7,2.1,5.9,4.5,6.5s8,.9,16.6.9C487.6,196.5,488.8,197.2,488.8,198.5Z"/><path class="b" d="M694.5,207c0,1.5-1.7,2.2-5,2.2H636.1c-2.5,0-3.8-.6-3.8-1.9s1.1-2.2,3.2-2.2h9.8c3-.2,4.7-.9,5.2-2.1s.7-5.4.7-12.5V116.8c0-11.5-1.5-19.7-4.5-24.5S638.5,85,631.2,85a24.6,24.6,0,0,0-14.3,4.6,24.3,24.3,0,0,0-9.2,11.7c-.8,3-1.2,13.9-1.2,32.9v56a105.5,105.5,0,0,0,.3,11.3c.6,2.4,2.3,3.6,5.2,3.6h8.5c2.5,0,3.8.7,3.8,2.2s-1.5,1.9-4.5,1.9H566.5q-3.6,0-3.6-2.4c0-.9.6-1.5,1.8-1.7s5.1-.3,11.8-.3q4.8-.3,5.1-3l.3-4.1V115.2c0-11.5-1.5-19.4-4.3-23.7S569.7,85,562.4,85a25.6,25.6,0,0,0-18.1,6.8,22.4,22.4,0,0,0-7.2,17.1v84c0,6,.4,9.5,1.3,10.5s3.8,1.7,8.6,1.7h2.4l3.2-.3c2.1,0,3.2.8,3.2,2.3s-1.3,2.1-3.9,2.1H549c-4.8-.2-12.2-.2-22.3,0h-29q-4.2,0-4.2-2.4c0-1.3,1.3-2,3.9-2,7.5,0,11.8-.4,13-1.1s1.9-1.9,2.1-3.7V123.2q0-22.2-.9-26.1c-.6-2.5-3.5-3.8-8.6-3.8h-9.8c-2.5,0-3.8-.7-3.8-2.1s.4-1.9,1.3-2.1l9.7-.8c4.5-.2,10.2-1.4,17-3.6s10.8-4.1,11.8-5.6,3.7-3.3,4.7-3.3,1.6.8,1.8,2.4.4,7.1.6,16.6c7.9-12.7,20.1-19,36.5-19s28.3,6.6,32.1,19.9C612.6,82.4,625,75.8,642,75.8c14.6,0,24.5,5.2,29.7,15.7,2.8,5.6,4.2,14.7,4.2,27.6v73.2c0,6.7.3,10.4,1,11.1s3.7,1.3,9.2,1.7h5.2C693.5,204.9,694.5,205.5,694.5,207Z"/></svg>